<svg xmlns="http://www.w3.org/2000/svg" width="123" height="65"><path d="M.936 52.232l.169-.554.732-2.073.509-1.407c1.108-3.075 2.255-6.258 3.682-9.176.627-1.284 1.131-2.257 1.542-2.979.339-.603.641-1.081.946-1.508.521-.721 1.141-1.451 2.162-1.919.847-.385 1.906-.449 3.374-.537.249-.015.508-.029.781-.048.761-.05 1.967-.077 3.245-.104 1.744-.039 3.72-.082 4.426-.198.965-.156 1.604-.69 2.135-1.789.22-.452.454-1.106.739-2.061.107-.373.214-.76.321-1.147l.041-.151c-.451-.68-.758-1.254-.936-1.752-.338-.956-.322-2.24-.31-3.271.002-.286.014-.566.026-.837.012-.277.026-.625.018-.865a.73.73 0 01-.27-.087c-.555-.302-.845-1.28-.968-1.836-.271-1.209-.242-2.127.111-3.507.277-1.078.736-1.479 1.072-1.625.269-.117.557-.104.761.031.123.08.258.189.399.32.202-1.871.741-3.492 1.606-4.832 1.469-2.265 3.033-3.292 5.774-3.788 1.805-.323 3.526-.247 5.115.226 1.581.468 3.079 1.35 4.413 2.602 2.025 1.914 2.775 3.629 2.768 6.324-.003 1.596-.436 3.248-1.286 4.926a3.1 3.1 0 01.505-.05c.116 0 .231.031.337.088.444.242.765.959.332 2.247-.451 1.342-.928 2.127-1.821 3-.502.491-1.436 1.258-2.086.937-.138.195-.311.49-.452.727-.138.237-.282.48-.439.725l-.029.044c-.549.858-1.232 1.923-2.017 2.525-.419.321-.991.635-1.743.959-.025.079-.045.149-.068.22l-.14.467c-.068.23-.141.464-.214.696-.196.647-.396 1.337-.486 2.035-.153 1.21.09 2.008.812 2.665.532.484 2.174 1.606 3.623 2.594 1.046.716 2.035 1.392 2.641 1.845.209.157.41.308.602.448 1.193.886 2.058 1.524 2.558 2.315.597.941.718 1.9.761 2.797.025.526.01 1.149-.046 1.96-.045.709-.14 1.646-.296 2.951l-.036.267-20.249 8.623L.936 52.232zm23.909-33.454l.284.287c.28.29.257.818.22 1.693a21.17 21.17 0 00-.026.809c-.011.968-.025 2.171.262 2.985.167.462.484 1.042.949 1.724l.107.16-.143.52c-.108.391-.216.781-.325 1.159-.299 1.003-.55 1.697-.789 2.189-.406.839-1.133 1.986-2.749 2.246-.763.126-2.684.167-4.541.208-1.268.027-2.466.054-3.208.103l-.786.05c-1.377.081-2.374.14-3.08.463-.796.363-1.308.923-1.831 1.646-.287.4-.573.856-.898 1.434-.402.706-.898 1.665-1.518 2.934-1.408 2.878-2.546 6.036-3.647 9.092-.17.473-.34.942-.51 1.41-.032.083-.241.68-.632 1.789l24.045 7.138 19.536-8.32c.14-1.174.225-2.037.267-2.694.054-.78.069-1.371.046-1.864-.043-.904-.167-1.658-.634-2.394-.418-.659-1.229-1.26-2.351-2.092-.192-.143-.395-.292-.606-.45-.591-.442-1.572-1.113-2.609-1.822-1.544-1.056-3.141-2.146-3.714-2.668-1.211-1.099-1.195-2.458-1.077-3.384.098-.761.308-1.491.516-2.173.073-.232.144-.461.213-.691.049-.16.095-.317.141-.473.026-.079.046-.151.068-.222.029-.126.08-.357.31-.451.753-.315 1.335-.626 1.721-.922.669-.513 1.309-1.511 1.823-2.312l.028-.045c.15-.232.29-.47.425-.699.427-.725.709-1.204 1.104-1.293l.394-.087.079.311c.174-.046.571-.254 1.095-.766.798-.781 1.205-1.455 1.614-2.672.271-.804.143-1.156.072-1.239-.225.011-.644.081-1.15.257l-1.066.369.572-.972c1.084-1.843 1.636-3.646 1.64-5.363.006-2.465-.649-3.961-2.507-5.717-1.237-1.162-2.621-1.979-4.08-2.41-1.464-.437-3.055-.505-4.731-.205-2.514.455-3.882 1.35-5.225 3.42-.93 1.441-1.452 3.255-1.548 5.391l-.051 1.122-.688-.887c-.332-.424-.642-.711-.826-.844-.105.032-.406.257-.617 1.077-.321 1.253-.347 2.04-.105 3.121.161.722.378 1.109.5 1.242l.237-.218z"/><path fill="#FFFFFE" d="M45.952 50.785l-19.896 8.474-24.601-7.304c.005 0 .719-2.059.773-2.209 1.27-3.497 2.538-7.197 4.173-10.543.647-1.324 1.141-2.271 1.529-2.954.382-.678.671-1.119.923-1.472.516-.715 1.085-1.365 1.996-1.782.91-.415 2.165-.427 4.01-.548 1.843-.124 6.471-.105 7.71-.306 1.241-.202 1.932-.965 2.441-2.019.261-.54.515-1.29.763-2.122.14-.487.278-.991.417-1.491-.465-.684-.81-1.3-.996-1.819-.311-.88-.297-2.132-.286-3.127.008-.993.14-1.985-.077-2.209-.395.362-.875-.373-1.127-1.511-.254-1.133-.234-1.98.107-3.313.342-1.333.981-1.496 1.206-1.349.225.146.59.48.966.962.055-1.206.28-3.53 1.615-5.596 1.338-2.063 2.719-3.101 5.5-3.604 1.833-.329 3.479-.215 4.922.215 1.448.428 2.889 1.231 4.248 2.507 2.05 1.937 2.644 3.562 2.638 6.019-.006 2.462-1.085 4.533-1.698 5.573.575-.199 1.065-.28 1.334-.28.27 0 .712.484.273 1.788-.439 1.305-.888 2.024-1.717 2.835-.834.816-1.637 1.17-1.768.651-.305.069-.733.974-1.27 1.81-.537.839-1.208 1.896-1.949 2.464-.435.333-1.056.659-1.817.976-.036.015-.054.14-.064.171-.023.079-.045.157-.071.235l-.143.472c-.068.231-.14.465-.212.695-.21.691-.41 1.391-.502 2.104-.147 1.159.015 2.181.944 3.025s4.816 3.358 6.294 4.464c1.478 1.107 2.523 1.808 3.058 2.654.536.846.656 1.711.698 2.593.021.461.014 1.05-.047 1.913-.045.717-.144 1.68-.293 2.928-.003.013-.003.02-.004.03"/><path d="M1.34 51.993l.029-.079c.486-1.363.748-2.095.784-2.193l.508-1.409c1.107-3.067 2.25-6.239 3.669-9.143.623-1.278 1.124-2.244 1.531-2.959.334-.592.628-1.062.928-1.479.492-.683 1.079-1.375 2.027-1.809.79-.359 1.824-.42 3.256-.506l.782-.048c.754-.05 1.956-.078 3.229-.104 1.841-.042 3.744-.083 4.473-.2 1.071-.173 1.805-.783 2.382-1.975.227-.467.468-1.139.759-2.11.107-.376.216-.766.322-1.155l.083-.299c-.476-.703-.808-1.311-.985-1.806-.316-.898-.302-2.15-.289-3.154.002-.283.014-.559.025-.828.023-.546.045-1.065-.043-1.267a.366.366 0 01-.384.006c-.315-.171-.615-.776-.801-1.614-.263-1.167-.235-2.014.108-3.352.256-.995.663-1.304.882-1.399.165-.072.332-.07.443.003.194.127.51.405.855.818.124-2.134.667-3.96 1.617-5.428 1.428-2.204 2.88-3.156 5.552-3.64 1.752-.314 3.421-.241 4.959.217 1.533.453 2.983 1.309 4.278 2.525 1.974 1.865 2.67 3.455 2.663 6.079-.004 1.749-.543 3.575-1.604 5.431.511-.158.927-.218 1.161-.219a.38.38 0 01.175.047c.309.168.542.753.174 1.845-.433 1.285-.887 2.035-1.738 2.868-.572.561-1.324 1.083-1.715.87a.35.35 0 01-.154-.168c-.185.12-.446.565-.722 1.032-.138.233-.28.474-.434.714l-.028.045c-.534.834-1.2 1.873-1.939 2.439-.424.325-1.019.646-1.821.981a.513.513 0 00-.024.089c-.004.016-.006.028-.009.035-.027.089-.048.164-.072.239-.046.155-.093.313-.142.471-.068.23-.141.463-.213.695-.201.663-.405 1.369-.499 2.09-.167 1.315.117 2.228.919 2.956.549.5 2.13 1.579 3.661 2.624 1.042.714 2.027 1.387 2.627 1.837.21.157.411.308.603.448 1.166.864 2.007 1.487 2.474 2.226.556.876.669 1.784.71 2.633.024.515.009 1.124-.046 1.922a55.56 55.56 0 01-.294 2.933l-.006.046-.045.045-19.922 8.483-.027-.008L1.34 51.993zm23.494-32.749l.054.056c.18.186.157.713.125 1.445-.012.267-.023.542-.025.82-.013.994-.027 2.229.281 3.1.175.489.507 1.095.987 1.8l.021.031-.103.37c-.107.39-.215.778-.323 1.156-.293.981-.537 1.659-.767 2.136-.603 1.244-1.375 1.88-2.501 2.062-.74.121-2.647.163-4.494.203-1.272.029-2.475.056-3.224.104-.274.018-.534.033-.782.047-1.415.085-2.438.148-3.2.495-.915.419-1.485 1.092-1.965 1.758-.294.41-.585.875-.917 1.462-.406.714-.905 1.678-1.527 2.951-1.416 2.896-2.558 6.064-3.662 9.127-.17.471-.339.941-.509 1.407-.036.099-.288.802-.756 2.115l24.505 7.284 19.826-8.442a53.98 53.98 0 00.292-2.907c.056-.791.07-1.396.047-1.903-.04-.827-.149-1.708-.685-2.556-.453-.711-1.284-1.328-2.435-2.182l-.604-.449c-.596-.447-1.581-1.121-2.622-1.83-1.535-1.048-3.121-2.132-3.678-2.64-.844-.768-1.144-1.721-.969-3.094.095-.735.301-1.449.504-2.118.072-.231.146-.463.213-.694a42.284 42.284 0 00.209-.694l.011-.039c.02-.096.042-.171.103-.196.785-.327 1.391-.653 1.799-.966.718-.55 1.375-1.575 1.903-2.4l.027-.043c.153-.238.294-.479.431-.709.369-.627.636-1.08.888-1.136l.076-.016.019.074c.019.076.054.126.106.155.252.137.88-.209 1.529-.844.84-.823 1.27-1.53 1.697-2.804.36-1.069.107-1.544-.099-1.656a.2.2 0 00-.099-.027c-.25 0-.725.074-1.308.275l-.205.071.11-.186c1.115-1.895 1.682-3.756 1.686-5.533.007-2.572-.677-4.132-2.612-5.961-1.277-1.199-2.706-2.042-4.215-2.489-1.514-.451-3.158-.522-4.886-.214-2.621.474-4.045 1.41-5.447 3.57-.963 1.492-1.502 3.362-1.602 5.557l-.009.215-.132-.17c-.382-.489-.74-.809-.948-.946h-.001c-.079-.043-.185-.038-.293.008-.155.068-.542.33-.791 1.294-.335 1.311-.362 2.138-.107 3.277.171.771.455 1.364.722 1.509.1.054.187.042.274-.04l.057-.05z"/><path fill="#11100F" d="M42.427 23.035c.117-.058.574-.464.709-.607.331-.365.729-1.146.786-1.659.08-.772-.342-.576-.476-.446-.144.14-.299.342-.417.778-.064.243.042.295-.126.644-.188.387-.284.387-.365.459-.081.075-.166.126-.262.283-.097.16-.17.338-.217.496-.085.297.195.133.368.052m-17.862-5.227c-.062-.116-.197-.712-.223-.907-.057-.49.074-1.357.327-1.807.384-.675.613-.27.646-.084.035.197.044.451-.114.873-.09.235-.206.216-.27.597-.073.426.004.481.029.585.021.108.061.199.048.383a2.128 2.128 0 01-.112.528c-.106.294-.238-.002-.331-.168"/><path d="M35.32 33.819v-.034c.002-.098.005-.199.013-.296.035-.491.129-.971.244-1.447.087-.366.188-.727.293-1.087l.332-1.104.022-.066.068-.216.06-.185-.235.081h-.001l-.139.047.001.002-1.308.472c-.078.026-.138.043-.27.083-.152.045-.284.085-.418.122a10.864 10.864 0 01-.774.181c-.139.025-.238.045-.398.063-.162.017-.145.02-.314.027-.167.008-.175.012-.316.01-.143-.002-.186-.001-.318-.012a5.41 5.41 0 01-.368-.036 9.877 9.877 0 01-.446-.074c-.098-.021-.24-.047-.351-.076a3.375 3.375 0 01-.354-.116c-.125-.048-.259-.097-.39-.155-.131-.059-.248-.109-.372-.176a6.273 6.273 0 01-.422-.24c-.118-.078-.277-.183-.401-.283a7.12 7.12 0 01-.359-.305 8.604 8.604 0 01-.316-.312 18.998 18.998 0 01-.344-.375 19.19 19.19 0 01-.254-.299c-.05-.061-.089-.105-.145-.176a8.757 8.757 0 01-.143-.186l-.113-.15c-.016-.02.007.028.046.106a10.788 10.788 0 00.302.592c.052.096.204.365.269.471.064.105.186.302.253.406.068.103.148.221.206.303s.097.139.157.22c.061.08.12.162.203.268.083.104.157.199.246.305.089.108.156.187.268.312.112.126.173.195.26.287.087.092.288.301.351.365.062.062.436.426.519.502.084.076.285.254.379.334.094.077.251.208.331.268.08.062.247.188.305.231.059.042.264.183.342.235.079.051.311.198.382.239.071.043.212.124.31.175.099.051.189.099.278.143.091.04.245.112.348.154.103.041.208.087.303.117.093.034.165.06.283.093.119.036.161.051.292.081.13.029.212.051.333.069.122.017.065.012.174.025.11.013.097.015.206.021s.133.01.228.012c.094.002.295 0 .295 0 .024 0 .039 0 .124-.004.07-.002.131-.005.169-.008l.074-.004z"/><path fill="#1A1919" d="M28.996 37.738s.736-.467.86-.502.454-.018.511-.004c.058.015 3.974.854 3.974.854l3.583.634s-3.362-.421-3.581-.461c-.218-.042-3.913-.805-3.988-.807-.075-.002-.349-.05-.451-.013m-1.679.072s-.361-.792-.446-.892c-.084-.097-.371-.262-.426-.282-.056-.02-3.796-1.453-3.796-1.453l-3.349-1.424s3.047 1.481 3.252 1.566 3.718 1.464 3.782 1.503c.063.038.321.148.385.235"/><path fill="#FFFFFE" d="M34.869 43.81c.081.048 1.404.782 1.404.782l1.595.961a1084.344 1084.344 0 004.127 2.56 335.05 335.05 0 011.762 1.129c.067.043 2.102 1.521 2.102 1.521l-19.72 8.37 8.142-15.693.588.37z"/><path fill="#696969" stroke="#000" stroke-width=".5" stroke-linecap="round" stroke-linejoin="round" stroke-miterlimit="10" d="M25.845 59.287s7.898-11.87 5.264-15.701l14.918 7.238"/><path fill="none" d="M51.168 5.332h76.5v54.5h-76.5z"/><text transform="translate(51.168 18.515)"><tspan x="0" y="0" fill="#127678" font-family="'CocogoosePro'" font-size="16">D</tspan><tspan x="12.367" y="0" font-family="'CocogoosePro-UltraLight'" font-size="16">iversity</tspan><tspan x="0" y="18" fill="#FF674F" font-family="'CocogoosePro'" font-size="16">A</tspan><tspan x="12.242" y="18" font-family="'CocogoosePro-UltraLight'" font-size="16">vatar</tspan><tspan x="0" y="36" fill="#B77138" font-family="'CocogoosePro'" font-size="16">S</tspan><tspan x="10.5" y="36" font-family="'CocogoosePro-UltraLight'" font-size="16">tickers</tspan></text></svg>