<svg xmlns="http://www.w3.org/2000/svg" xmlns:xlink="http://www.w3.org/1999/xlink" width="134.25" height="71"><switch><g><g transform="translate(1 8)"><image overflow="visible" opacity=".75" width="403" height="426" xlink:href="85B3A8CFFCE18D53.png" transform="matrix(.24 0 0 .24 .686 -4.662)"/><path d="M2.686 47.657l.182-.593c.488-1.383.749-2.125.785-2.222.182-.5.363-1.004.545-1.508 1.187-3.295 2.417-6.705 3.945-9.832.672-1.376 1.212-2.418 1.652-3.191.363-.646.687-1.158 1.013-1.616.558-.771 1.223-1.555 2.316-2.056.907-.412 2.042-.481 3.615-.575.266-.017.544-.031.836-.051.816-.054 2.107-.083 3.477-.112 1.869-.041 3.986-.087 4.743-.212 1.034-.167 1.718-.74 2.288-1.917.235-.484.487-1.186.792-2.208.115-.399.229-.814.344-1.229l.044-.162c-.483-.729-.812-1.344-1.002-1.878-.362-1.024-.345-2.4-.332-3.505.002-.306.015-.606.028-.896.013-.297.028-.669.019-.927a.784.784 0 01-.289-.094c-.595-.324-.905-1.371-1.038-1.968-.291-1.295-.259-2.279.119-3.757.297-1.155.789-1.584 1.149-1.741.288-.126.597-.111.816.033.131.085.276.203.428.343.216-2.004.794-3.742 1.722-5.177 1.574-2.427 3.25-3.527 6.187-4.059 1.935-.347 3.778-.264 5.481.242 1.693.501 3.299 1.447 4.728 2.788 2.17 2.051 2.973 3.888 2.965 6.776-.003 1.71-.467 3.48-1.377 5.279.201-.035.386-.054.542-.054a.76.76 0 01.361.094c.476.259.82 1.028.355 2.408-.483 1.438-.994 2.28-1.951 3.215-.538.525-1.539 1.348-2.235 1.003-.148.209-.333.525-.485.779-.148.254-.302.515-.47.777l-.031.048c-.588.919-1.32 2.061-2.162 2.706-.449.344-1.062.68-1.867 1.028-.026.085-.048.16-.073.235-.048.16-.098.333-.15.501-.073.247-.151.498-.229.746-.209.693-.424 1.433-.521 2.181-.164 1.297.096 2.151.871 2.855.57.52 2.33 1.722 3.882 2.779 1.121.767 2.18 1.491 2.83 1.977.224.169.439.33.645.48 1.278.949 2.205 1.634 2.741 2.48.64 1.009.769 2.037.815 2.997.026.564.01 1.231-.05 2.101-.048.76-.149 1.764-.317 3.162l-.039.285-21.697 9.24-26.946-7.998zm25.619-35.846l.304.308c.3.31.276.876.235 1.814-.013.282-.025.574-.027.866-.012 1.038-.027 2.327.28 3.199.178.495.519 1.117 1.017 1.847l.115.171-.153.557c-.116.419-.231.837-.348 1.242-.321 1.075-.589 1.819-.845 2.346-.436.899-1.214 2.128-2.945 2.406-.817.136-2.875.18-4.866.224-1.358.028-2.643.058-3.438.11l-.842.054c-1.476.087-2.543.15-3.3.496-.854.39-1.402.989-1.961 1.765-.308.429-.614.918-.962 1.536-.431.756-.962 1.784-1.626 3.144-1.509 3.083-2.728 6.468-3.908 9.741l-.546 1.512c-.034.089-.258.728-.677 1.917l25.765 7.647 20.934-8.915c.149-1.258.24-2.183.286-2.887.058-.836.074-1.47.049-1.998-.046-.969-.179-1.776-.679-2.564-.448-.706-1.316-1.35-2.519-2.241l-.649-.482c-.634-.475-1.685-1.193-2.796-1.953-1.654-1.131-3.366-2.299-3.979-2.858-1.297-1.177-1.28-2.634-1.154-3.626.105-.815.33-1.598.553-2.329.078-.249.154-.494.228-.741.053-.171.102-.34.151-.506.028-.085.05-.162.073-.238.031-.135.085-.383.332-.483.808-.338 1.431-.67 1.845-.988.717-.549 1.402-1.619 1.954-2.478l.03-.048c.161-.249.31-.504.455-.749.458-.777.76-1.29 1.182-1.386l.422-.094.085.333c.187-.049.612-.272 1.173-.82.855-.837 1.292-1.559 1.73-2.864.29-.861.152-1.239.077-1.328-.241.011-.689.087-1.232.275l-1.142.396.613-1.042c1.162-1.975 1.753-3.907 1.758-5.747.006-2.641-.696-4.245-2.687-6.126-1.325-1.245-2.808-2.121-4.372-2.583-1.569-.467-3.274-.542-5.07-.219-2.694.487-4.16 1.446-5.598 3.665-.997 1.544-1.556 3.488-1.659 5.776l-.055 1.202-.741-.948c-.355-.455-.688-.763-.885-.904-.113.035-.435.275-.661 1.154-.344 1.342-.372 2.185-.112 3.344.172.773.405 1.188.536 1.331l.252-.233z"/><path fill="#FFFFFE" d="M50.921 46.106l-21.318 9.08-26.36-7.826c.005 0 .771-2.206.829-2.367 1.361-3.747 2.72-7.712 4.471-11.297.694-1.419 1.223-2.434 1.638-3.165.41-.727.72-1.199.99-1.577.553-.766 1.163-1.463 2.139-1.909.975-.444 2.32-.458 4.296-.588 1.975-.133 6.934-.112 8.261-.328 1.33-.216 2.07-1.034 2.616-2.163.28-.578.552-1.382.817-2.274.15-.521.298-1.062.446-1.597-.499-.732-.868-1.393-1.067-1.949-.333-.943-.319-2.284-.306-3.351.008-1.064.15-2.127-.083-2.368-.423.388-.938-.399-1.208-1.619-.272-1.214-.25-2.122.115-3.55.367-1.428 1.052-1.603 1.292-1.445.241.157.632.515 1.035 1.031.059-1.292.3-3.782 1.73-5.996 1.434-2.211 2.914-3.323 5.893-3.862 1.964-.352 3.729-.231 5.274.23 1.552.458 3.095 1.319 4.551 2.687 2.197 2.076 2.833 3.816 2.827 6.45-.006 2.638-1.163 4.857-1.819 5.972.616-.213 1.142-.3 1.43-.3.289 0 .764.519.293 1.916-.471 1.398-.951 2.168-1.84 3.038-.895.875-1.754 1.254-1.895.698-.327.075-.786 1.043-1.36 1.939-.576.899-1.294 2.031-2.089 2.64-.466.357-1.131.706-1.947 1.046-.039.016-.058.15-.069.183-.025.084-.049.168-.076.252a97.154 97.154 0 01-.379 1.251c-.226.74-.44 1.49-.539 2.255-.158 1.242.016 2.337 1.012 3.242.996.904 5.161 3.598 6.745 4.782 1.583 1.188 2.704 1.938 3.276 2.845.574.906.703 1.833.748 2.778.023.493.015 1.125-.05 2.05-.048.768-.154 1.8-.314 3.137-.004.011-.004.019-.005.029"/><path d="M3.119 47.401l.032-.085a840.704 840.704 0 011.384-3.861c1.186-3.287 2.41-6.686 3.932-9.796.667-1.37 1.204-2.405 1.64-3.171.358-.634.673-1.138.994-1.584.527-.731 1.156-1.474 2.172-1.938.847-.386 1.954-.45 3.489-.543l.838-.052c.808-.054 2.096-.083 3.46-.112 1.973-.044 4.012-.088 4.793-.214 1.147-.186 1.934-.839 2.552-2.117.243-.5.501-1.221.813-2.261.115-.403.231-.821.345-1.237l.089-.32c-.51-.753-.865-1.405-1.056-1.935-.339-.963-.324-2.304-.31-3.38.003-.303.015-.599.027-.887.025-.585.049-1.141-.046-1.358a.392.392 0 01-.412.007c-.338-.184-.659-.832-.858-1.729-.281-1.251-.251-2.158.116-3.592.274-1.066.71-1.397.945-1.499.176-.077.355-.075.475.003.208.136.547.434.916.877.133-2.287.715-4.243 1.733-5.816 1.53-2.361 3.086-3.382 5.949-3.9 1.877-.336 3.666-.258 5.313.233 1.643.485 3.197 1.403 4.584 2.706 2.115 1.998 2.861 3.702 2.853 6.513-.004 1.874-.583 3.831-1.718 5.819.547-.169.994-.234 1.244-.235.062 0 .126.019.188.051.331.181.58.808.186 1.977-.464 1.377-.95 2.181-1.862 3.073-.613.601-1.418 1.161-1.838.932a.38.38 0 01-.166-.181c-.198.129-.478.606-.773 1.106-.147.25-.3.508-.464.765l-.03.048c-.573.894-1.286 2.007-2.078 2.614-.455.348-1.092.692-1.951 1.051a.597.597 0 00-.026.096l-.009.038c-.029.096-.051.175-.078.256l-.151.504c-.073.247-.151.496-.228.744-.216.71-.435 1.467-.535 2.24-.178 1.409.125 2.387.985 3.167.588.536 2.283 1.692 3.923 2.812 1.117.766 2.172 1.486 2.815 1.969.226.168.44.329.646.48 1.25.926 2.15 1.594 2.651 2.385.595.938.717 1.911.761 2.82.026.552.01 1.205-.05 2.06a59.393 59.393 0 01-.315 3.143l-.006.049-.049.049-21.346 9.09-.029-.009-26.459-7.865zM28.293 12.31l.058.06c.192.199.168.764.134 1.548-.012.286-.025.58-.027.879-.014 1.065-.029 2.389.301 3.322.187.524.543 1.173 1.057 1.929l.022.033-.11.396c-.115.417-.23.834-.346 1.239-.314 1.051-.575 1.777-.822 2.288-.646 1.333-1.473 2.015-2.681 2.209-.793.13-2.837.174-4.815.218-1.363.031-2.651.06-3.455.111-.293.019-.572.035-.838.051-1.516.091-2.612.158-3.428.53-.98.449-1.591 1.17-2.105 1.884a17.04 17.04 0 00-.982 1.566c-.436.765-.97 1.797-1.636 3.162-1.517 3.104-2.741 6.498-3.923 9.779-.182.505-.363 1.009-.545 1.508-.038.105-.309.859-.811 2.267l26.257 7.805 21.244-9.046c.167-1.379.266-2.368.312-3.115.06-.848.075-1.495.05-2.039-.042-.887-.16-1.83-.733-2.738-.485-.762-1.375-1.423-2.608-2.338l-.648-.481c-.639-.479-1.694-1.201-2.81-1.961-1.645-1.123-3.344-2.284-3.941-2.828-.904-.822-1.225-1.844-1.039-3.315.102-.787.323-1.552.54-2.269.077-.247.156-.496.228-.744.052-.168.103-.338.152-.506l.072-.238.012-.042c.021-.103.045-.183.11-.21.841-.351 1.49-.7 1.928-1.035.769-.589 1.474-1.687 2.039-2.571l.029-.047c.164-.254.315-.513.462-.759.396-.672.682-1.157.952-1.218l.081-.017.021.08c.021.081.058.135.114.166.27.147.943-.224 1.639-.904.9-.882 1.36-1.639 1.818-3.004.386-1.146.115-1.654-.106-1.774a.21.21 0 00-.106-.029c-.269 0-.776.079-1.401.295l-.219.076.118-.199c1.194-2.03 1.802-4.025 1.807-5.929.007-2.756-.725-4.428-2.799-6.388-1.368-1.285-2.899-2.188-4.517-2.667-1.622-.483-3.384-.56-5.236-.229-2.808.508-4.334 1.51-5.836 3.825-1.032 1.599-1.61 3.602-1.716 5.955l-.01.23-.142-.182c-.41-.524-.793-.867-1.016-1.013h-.001c-.084-.047-.198-.041-.314.009-.166.073-.581.353-.847 1.387-.359 1.405-.388 2.291-.114 3.512.184.826.487 1.461.773 1.617.107.058.201.045.294-.042l.059-.059z"/><path fill="#11100F" d="M47.144 16.372c.125-.062.615-.497.759-.651.354-.391.782-1.229.842-1.777.086-.828-.367-.617-.51-.478-.154.15-.321.367-.447.833-.069.261.045.316-.136.689-.202.415-.304.415-.391.492-.087.08-.178.135-.281.303a2.264 2.264 0 00-.232.531c-.09.32.211.144.396.058m-19.139-5.601c-.066-.125-.211-.763-.239-.972-.061-.525.08-1.455.351-1.936.412-.723.657-.289.692-.09.038.211.047.483-.122.936-.096.252-.22.231-.29.64-.079.457.004.516.031.627.023.116.065.213.052.411-.015.199-.062.4-.12.566-.114.313-.256-.004-.355-.182"/><path d="M39.529 27.928v-.037a4.74 4.74 0 01.014-.316c.037-.526.138-1.04.261-1.551.093-.392.202-.778.314-1.165l.356-1.182.023-.071.073-.231.064-.198-.252.087h-.001l-.148.051.001.002-1.401.505c-.083.028-.148.047-.289.09-.163.048-.304.091-.448.131-.146.039-.248.067-.406.104-.158.037-.276.065-.424.09-.148.027-.255.049-.426.067-.173.018-.155.021-.337.029-.179.009-.188.013-.339.011-.153-.002-.2-.001-.341-.013a4.91 4.91 0 01-.394-.039 11.091 11.091 0 01-.478-.079c-.105-.022-.257-.051-.376-.082a3.601 3.601 0 01-.378-.124c-.135-.051-.278-.104-.418-.167s-.265-.117-.398-.189a6.49 6.49 0 01-.452-.257 6.142 6.142 0 01-.43-.303 7.296 7.296 0 01-.384-.327 9.927 9.927 0 01-.707-.735c-.065-.076-.219-.256-.272-.32-.054-.065-.095-.113-.155-.189s-.113-.145-.153-.199l-.122-.161c-.017-.021.008.03.049.114a12.34 12.34 0 00.323.634c.056.103.219.391.288.505.069.112.199.324.271.435.073.11.159.237.221.325.062.088.104.149.167.235.065.085.129.173.218.287a11.85 11.85 0 00.551.66c.12.136.186.209.279.308.093.099.308.323.375.391.067.065.467.456.556.538.09.081.306.271.406.357.101.082.27.224.355.287.085.067.264.202.327.248.063.045.282.196.367.252s.333.212.41.257a7.078 7.078 0 00.63.34c.098.043.263.12.373.166.11.044.223.093.325.125.1.037.176.063.304.1.127.039.172.055.312.087.14.031.227.055.357.074.131.018.07.013.187.027.118.014.104.016.22.022.116.008.143.011.244.013s.316 0 .316 0c.026 0 .042 0 .133-.004a2.91 2.91 0 00.182-.009l.077-.006z"/><path fill="#1A1919" d="M32.752 32.127s.789-.5.922-.538c.133-.038.487-.019.548-.004.062.016 4.258.915 4.258.915l3.84.68s-3.603-.451-3.836-.494c-.233-.045-4.193-.862-4.273-.864-.08-.002-.374-.054-.483-.014m-1.801.075s-.387-.849-.478-.955c-.09-.104-.397-.28-.457-.303-.06-.021-4.068-1.557-4.068-1.557l-3.589-1.525s3.266 1.587 3.485 1.678 3.984 1.568 4.052 1.61c.067.041.344.159.413.253"/><path fill="#FFFFFE" d="M39.045 38.632c.086.052 1.504.839 1.504.839l1.709 1.029s1.81 1.117 1.904 1.178c.094.057 2.425 1.505 2.518 1.564.092.057 1.817 1.161 1.888 1.21.072.046 2.252 1.631 2.252 1.631l-21.13 8.968 8.724-16.815.631.396z"/><path fill="#696969" stroke="#000" stroke-width=".5" stroke-linecap="round" stroke-linejoin="round" stroke-miterlimit="10" d="M29.376 55.217s8.463-12.719 5.64-16.824l15.985 7.756"/></g><path fill="none" d="M62 5.332h76.5v54.5H62z"/><text transform="translate(62 18.515)"><tspan x="0" y="0" fill="#127678" font-family="'CocogoosePro'" font-size="16">D</tspan><tspan x="12.367" y="0" font-family="'CocogoosePro-UltraLight'" font-size="16">iversity</tspan><tspan x="0" y="18" fill="#FF674F" font-family="'CocogoosePro'" font-size="16">A</tspan><tspan x="12.242" y="18" font-family="'CocogoosePro-UltraLight'" font-size="16">vatar</tspan><tspan x="0" y="36" fill="#B77138" font-family="'CocogoosePro'" font-size="16">S</tspan><tspan x="10.5" y="36" font-family="'CocogoosePro-UltraLight'" font-size="16">tickers</tspan></text></g></switch></svg>